# xmcd
#
# Track frame offsets:
#	150
#	64349
#	91030
#	120597
#	134611
#	172986
#	195728
#
# Disc length: 3361 seconds
#
# Revision: 1
# Processed by: cddbd v1.5.2PL0 Copyright (c) Steve Scherf et al.
# Submitted via: audiograbber 1.83.01
#
DISCID=5c0d1f07
DTITLE=Grateful Dead - 91-09-22 Boston Gardens, Boston MA
DYEAR=1900
DGENRE=
TTITLE0=Shakedown Street
TTITLE1=CC Rider
TTITLE2=It Takes A Train To Cry
TTITLE3=Me and My Uncle
TTITLE4=Maggies Farm
TTITLE5=Brown Eyed Women
TTITLE6=Let It Grow
EXTD=
EXTT0=
EXTT1=
EXTT2=
EXTT3=
EXTT4=
EXTT5=
EXTT6=
PLAYORDER=
